<svg id="wave" style="transform:rotate(0deg); transition: 0.3s" viewBox="0 0 1440 180" version="1.1" xmlns="http://www.w3.org/2000/svg"><defs><linearGradient id="sw-gradient-0" x1="0" x2="0" y1="1" y2="0"><stop stop-color="rgba(255, 255, 255, 1)" offset="0%"></stop><stop stop-color="rgba(255, 255, 255, 1)" offset="100%"></stop></linearGradient></defs><path style="transform:translate(0, 0px); opacity:1" fill="url(#sw-gradient-0)" d="M0,90L34.3,102C68.6,114,137,138,206,129C274.3,120,343,78,411,63C480,48,549,60,617,75C685.7,90,754,108,823,99C891.4,90,960,54,1029,45C1097.1,36,1166,54,1234,78C1302.9,102,1371,132,1440,123C1508.6,114,1577,66,1646,51C1714.3,36,1783,54,1851,57C1920,60,1989,48,2057,57C2125.7,66,2194,96,2263,114C2331.4,132,2400,138,2469,135C2537.1,132,2606,120,2674,114C2742.9,108,2811,108,2880,93C2948.6,78,3017,48,3086,36C3154.3,24,3223,30,3291,30C3360,30,3429,24,3497,42C3565.7,60,3634,102,3703,120C3771.4,138,3840,132,3909,123C3977.1,114,4046,102,4114,90C4182.9,78,4251,66,4320,63C4388.6,60,4457,66,4526,78C4594.3,90,4663,108,4731,111C4800,114,4869,102,4903,96L4937.1,90L4937.1,180L4902.9,180C4868.6,180,4800,180,4731,180C4662.9,180,4594,180,4526,180C4457.1,180,4389,180,4320,180C4251.4,180,4183,180,4114,180C4045.7,180,3977,180,3909,180C3840,180,3771,180,3703,180C3634.3,180,3566,180,3497,180C3428.6,180,3360,180,3291,180C3222.9,180,3154,180,3086,180C3017.1,180,2949,180,2880,180C2811.4,180,2743,180,2674,180C2605.7,180,2537,180,2469,180C2400,180,2331,180,2263,180C2194.3,180,2126,180,2057,180C1988.6,180,1920,180,1851,180C1782.9,180,1714,180,1646,180C1577.1,180,1509,180,1440,180C1371.4,180,1303,180,1234,180C1165.7,180,1097,180,1029,180C960,180,891,180,823,180C754.3,180,686,180,617,180C548.6,180,480,180,411,180C342.9,180,274,180,206,180C137.1,180,69,180,34,180L0,180Z"></path></svg>