<svg id="wave" style="transform:rotate(0deg); transition: 0.3s" viewBox="0 0 1440 220" version="1.1" xmlns="http://www.w3.org/2000/svg"><defs><linearGradient id="sw-gradient-0" x1="0" x2="0" y1="1" y2="0"><stop stop-color="rgba(255, 255, 255, 1)" offset="0%"></stop><stop stop-color="rgba(255, 255, 255, 1)" offset="100%"></stop></linearGradient></defs><path style="transform:translate(0, 0px); opacity:1" fill="url(#sw-gradient-0)" d="M0,66L60,88C120,110,240,154,360,150.3C480,147,600,95,720,66C840,37,960,29,1080,51.3C1200,73,1320,125,1440,132C1560,139,1680,103,1800,88C1920,73,2040,81,2160,73.3C2280,66,2400,44,2520,47.7C2640,51,2760,81,2880,84.3C3000,88,3120,66,3240,73.3C3360,81,3480,117,3600,110C3720,103,3840,51,3960,51.3C4080,51,4200,103,4320,128.3C4440,154,4560,154,4680,143C4800,132,4920,110,5040,88C5160,66,5280,44,5400,62.3C5520,81,5640,139,5760,168.7C5880,198,6000,198,6120,165C6240,132,6360,66,6480,47.7C6600,29,6720,59,6840,80.7C6960,103,7080,117,7200,124.7C7320,132,7440,132,7560,135.7C7680,139,7800,147,7920,132C8040,117,8160,81,8280,58.7C8400,37,8520,29,8580,25.7L8640,22L8640,220L8580,220C8520,220,8400,220,8280,220C8160,220,8040,220,7920,220C7800,220,7680,220,7560,220C7440,220,7320,220,7200,220C7080,220,6960,220,6840,220C6720,220,6600,220,6480,220C6360,220,6240,220,6120,220C6000,220,5880,220,5760,220C5640,220,5520,220,5400,220C5280,220,5160,220,5040,220C4920,220,4800,220,4680,220C4560,220,4440,220,4320,220C4200,220,4080,220,3960,220C3840,220,3720,220,3600,220C3480,220,3360,220,3240,220C3120,220,3000,220,2880,220C2760,220,2640,220,2520,220C2400,220,2280,220,2160,220C2040,220,1920,220,1800,220C1680,220,1560,220,1440,220C1320,220,1200,220,1080,220C960,220,840,220,720,220C600,220,480,220,360,220C240,220,120,220,60,220L0,220Z"></path></svg>