<?xml version="1.0" encoding="UTF-8" standalone="no" ?>
<!DOCTYPE svg PUBLIC "-//W3C//DTD SVG 1.1//EN" "http://www.w3.org/Graphics/SVG/1.1/DTD/svg11.dtd">
<svg xmlns="http://www.w3.org/2000/svg" xmlns:xlink="http://www.w3.org/1999/xlink" version="1.1" style="enable-background:new 0 0 1095.3 595.3;" viewBox="0 0 1080 1080" xml:space="preserve">
<desc>Created with Fabric.js 5.2.4</desc>
<defs>
</defs>
<rect x="0" y="0" width="100%" height="100%" fill="transparent"></rect>
<g transform="matrix(1 0 0 1 540 540)" id="db440984-a93e-4600-bb10-69fff361ce49"  >
</g>
<g transform="matrix(1 0 0 1 540 540)" id="d139f80f-0461-4be0-99d7-11148e9e14f4"  >
<rect style="stroke: none; stroke-width: 1; stroke-dasharray: none; stroke-linecap: butt; stroke-dashoffset: 0; stroke-linejoin: miter; stroke-miterlimit: 4; fill: rgb(255,255,255); fill-rule: nonzero; opacity: 1; visibility: hidden;" vector-effect="non-scaling-stroke"  x="-540" y="-540" rx="0" ry="0" width="1080" height="1080" />
</g>
<g transform="matrix(1 0 0 1 248.86 501.88)"  >
<path style="stroke: none; stroke-width: 1; stroke-dasharray: none; stroke-linecap: butt; stroke-dashoffset: 0; stroke-linejoin: miter; stroke-miterlimit: 4; fill: rgb(66,77,193); fill-rule: nonzero; opacity: 1;" vector-effect="non-scaling-stroke"  transform=" translate(-255.31, -277.4)" d="M 308.5 321.4 C 306.5 326.09999999999997 303.8 330.09999999999997 300.4 333.59999999999997 C 297 336.99999999999994 292.9 339.79999999999995 288.2 341.7 C 283.5 343.7 278.5 344.7 273.2 344.7 L 199.39999999999998 344.7 L 199.39999999999998 307.09999999999997 L 216.7 307.09999999999997 L 216.7 327.2 L 273.09999999999997 327.2 C 278.99999999999994 327.2 283.9 325.2 287.9 321.2 C 292 317.09999999999997 293.9 312.09999999999997 293.9 306.4 L 293.9 286 L 199.2 286 L 199.2 248.4 C 199.2 243.1 200.29999999999998 238.20000000000002 202.2 233.4 C 204.2 228.70000000000002 206.89999999999998 224.70000000000002 210.29999999999998 221.20000000000002 C 213.7 217.8 217.79999999999998 215.00000000000003 222.49999999999997 213.10000000000002 C 227.19999999999996 211.10000000000002 232.19999999999996 210.10000000000002 237.49999999999997 210.10000000000002 L 311.29999999999995 210.10000000000002 L 311.29999999999995 240.50000000000003 L 293.99999999999994 240.50000000000003 L 293.99999999999994 227.40000000000003 L 237.59999999999994 227.40000000000003 C 234.69999999999993 227.40000000000003 231.89999999999995 227.90000000000003 229.49999999999994 229.10000000000002 C 226.99999999999994 230.20000000000002 224.79999999999995 231.70000000000002 222.89999999999995 233.60000000000002 C 221.09999999999994 235.40000000000003 219.49999999999994 237.70000000000002 218.39999999999995 240.3 C 217.19999999999996 242.9 216.69999999999996 245.70000000000002 216.69999999999996 248.60000000000002 L 216.69999999999996 268.70000000000005 L 311.4 268.70000000000005 L 311.4 306.40000000000003 C 311.6 311.7 310.5 316.7 308.5 321.4 z" stroke-linecap="round" />
</g>
<g transform="matrix(1 0 0 1 380.7 504.19)"  >
<path style="stroke: none; stroke-width: 1; stroke-dasharray: none; stroke-linecap: butt; stroke-dashoffset: 0; stroke-linejoin: miter; stroke-miterlimit: 4; fill: rgb(66,77,193); fill-rule: nonzero; opacity: 1;" vector-effect="non-scaling-stroke"  transform=" translate(-387.15, -277.6)" d="M 361.6 344.8 C 356.6 344.8 351.90000000000003 343.90000000000003 347.40000000000003 341.90000000000003 C 342.90000000000003 339.90000000000003 339.00000000000006 337.3 335.70000000000005 333.90000000000003 C 332.30000000000007 330.50000000000006 329.70000000000005 326.70000000000005 327.70000000000005 322.20000000000005 C 325.70000000000005 317.70000000000005 324.80000000000007 313.00000000000006 324.80000000000007 308.00000000000006 L 324.80000000000007 247.20000000000005 C 324.80000000000007 242.20000000000005 325.70000000000005 237.50000000000006 327.70000000000005 233.00000000000006 C 329.70000000000005 228.50000000000006 332.30000000000007 224.60000000000005 335.70000000000005 221.30000000000007 C 339.1 217.90000000000006 342.90000000000003 215.30000000000007 347.40000000000003 213.30000000000007 C 351.90000000000003 211.30000000000007 356.6 210.40000000000006 361.6 210.40000000000006 L 412.70000000000005 210.40000000000006 C 417.70000000000005 210.40000000000006 422.40000000000003 211.30000000000007 426.90000000000003 213.30000000000007 C 431.40000000000003 215.30000000000007 435.3 217.90000000000006 438.6 221.30000000000007 C 442 224.70000000000007 444.6 228.50000000000006 446.6 233.00000000000006 C 448.6 237.50000000000006 449.5 242.20000000000005 449.5 247.20000000000005 L 449.5 308 C 449.5 313 448.6 317.7 446.6 322.2 C 444.6 326.7 442 330.59999999999997 438.6 333.9 C 435.20000000000005 337.29999999999995 431.40000000000003 339.9 426.90000000000003 341.9 C 422.40000000000003 343.9 417.70000000000005 344.79999999999995 412.70000000000005 344.79999999999995 L 361.6 344.79999999999995 z M 341.9 307.9 C 341.9 310.5 342.4 313 343.5 315.4 C 344.6 317.79999999999995 346 319.9 347.8 321.7 C 349.6 323.5 351.7 325 354.1 326 C 356.5 327.1 359 327.6 361.6 327.6 L 412.70000000000005 327.6 C 415.30000000000007 327.6 418.00000000000006 327.1 420.30000000000007 326 C 422.80000000000007 324.9 424.9000000000001 323.5 426.6000000000001 321.7 C 428.30000000000007 319.9 429.80000000000007 317.8 430.80000000000007 315.4 C 431.9000000000001 313 432.4000000000001 310.5 432.4000000000001 307.9 L 432.4000000000001 247 C 432.4000000000001 244.4 431.9000000000001 241.7 430.80000000000007 239.4 C 429.70000000000005 236.9 428.30000000000007 234.8 426.6000000000001 233.1 C 424.9000000000001 231.4 422.80000000000007 229.9 420.30000000000007 228.9 C 417.80000000000007 227.9 415.30000000000007 227.3 412.70000000000005 227.3 L 361.6 227.3 C 359 227.3 356.5 227.8 354.1 228.9 C 351.70000000000005 230 349.6 231.4 347.8 233.1 C 346 234.79999999999998 344.5 236.9 343.5 239.4 C 342.4 241.9 341.9 244.4 341.9 247 L 341.9 307.9 z" stroke-linecap="round" />
</g>
<g transform="matrix(1 0 0 1 502.65 501.94)"  >
<path style="stroke: none; stroke-width: 1; stroke-dasharray: none; stroke-linecap: butt; stroke-dashoffset: 0; stroke-linejoin: miter; stroke-miterlimit: 4; fill: rgb(66,77,193); fill-rule: nonzero; opacity: 1;" vector-effect="non-scaling-stroke"  transform=" translate(-509.1, -277.45)" d="M 486.1 341.8 C 481.5 339.8 477.6 337.2 474.3 333.8 C 470.90000000000003 330.40000000000003 468.3 326.40000000000003 466.3 322 C 464.3 317.5 463.40000000000003 312.5 463.40000000000003 307.4 L 463.40000000000003 210.2 L 480.70000000000005 210.2 L 480.70000000000005 307.4 C 480.70000000000005 310.2 481.20000000000005 312.79999999999995 482.30000000000007 315.2 C 483.4000000000001 317.59999999999997 484.80000000000007 319.7 486.6000000000001 321.5 C 488.4000000000001 323.3 490.50000000000006 324.8 492.9000000000001 325.8 C 495.30000000000007 326.90000000000003 497.9000000000001 327.40000000000003 500.7000000000001 327.40000000000003 L 554.8000000000001 327.40000000000003 L 554.8000000000001 344.70000000000005 L 500.70000000000005 344.70000000000005 C 495.4 344.8 490.7 343.7 486.1 341.8 z" stroke-linecap="round" />
</g>
<g transform="matrix(1 0 0 1 570.2 501.93)"  >
<path style="stroke: none; stroke-width: 1; stroke-dasharray: none; stroke-linecap: butt; stroke-dashoffset: 0; stroke-linejoin: miter; stroke-miterlimit: 4; fill: rgb(66,77,193); fill-rule: nonzero; opacity: 1;" vector-effect="non-scaling-stroke"  transform=" translate(-576.65, -277.45)" d="M 585.3 344.8 L 568 344.8 L 568 210.1 L 585.3 210.1 L 585.3 344.8 z" stroke-linecap="round" />
</g>
<g transform="matrix(1 0 0 1 642.2 501.84)"  >
<path style="stroke: none; stroke-width: 1; stroke-dasharray: none; stroke-linecap: butt; stroke-dashoffset: 0; stroke-linejoin: miter; stroke-miterlimit: 4; fill: rgb(253,212,19); fill-rule: nonzero; opacity: 1;" vector-effect="non-scaling-stroke"  transform=" translate(-648.65, -277.36)" d="M 621.8 341.8 C 617.1999999999999 339.8 613.0999999999999 337.2 609.6999999999999 333.8 C 606.3 330.40000000000003 603.4999999999999 326.3 601.6999999999999 321.7 C 599.6999999999999 317.09999999999997 598.8 312.2 598.8 307 L 598.8 247.6 C 598.8 242.5 599.6999999999999 237.6 601.6999999999999 233 C 603.6999999999999 228.4 606.3 224.5 609.6999999999999 221 C 613.0999999999999 217.6 617.1999999999999 214.8 621.8 213 C 626.4 211 631.3 210.1 636.5 210.1 L 698.4 210.1 L 698.4 227.29999999999998 L 636.5 227.29999999999998 C 633.7 227.29999999999998 631.1 227.79999999999998 628.5 228.89999999999998 C 626 229.99999999999997 623.8 231.39999999999998 622.1 233.2 C 620.3000000000001 235 618.8000000000001 237.29999999999998 617.8000000000001 239.6 C 616.7 242.1 616.2 244.7 616.2 247.5 L 616.2 306.9 C 616.2 312.7 618.2 317.4 622.1 321.4 C 626 325.4 630.8000000000001 327.29999999999995 636.6 327.29999999999995 L 698.5 327.29999999999995 L 698.5 344.59999999999997 L 636.6 344.59999999999997 C 631.3 344.8 626.4 343.7 621.8 341.8 z" stroke-linecap="round" />
</g>
<g transform="matrix(1 0 0 1 767.65 502.08)"  >
<path style="stroke: none; stroke-width: 1; stroke-dasharray: none; stroke-linecap: butt; stroke-dashoffset: 0; stroke-linejoin: miter; stroke-miterlimit: 4; fill: rgb(253,212,19); fill-rule: nonzero; opacity: 1;" vector-effect="non-scaling-stroke"  transform=" translate(-774.1, -277.6)" d="M 748.5 344.8 C 743.5 344.8 738.8 343.90000000000003 734.3 341.90000000000003 C 729.8 339.90000000000003 725.9 337.3 722.5999999999999 333.90000000000003 C 719.1999999999999 330.50000000000006 716.5999999999999 326.70000000000005 714.5999999999999 322.20000000000005 C 712.5999999999999 317.70000000000005 711.6999999999999 313.00000000000006 711.6999999999999 308.00000000000006 L 711.6999999999999 247.20000000000005 C 711.6999999999999 242.20000000000005 712.5999999999999 237.50000000000006 714.5999999999999 233.00000000000006 C 716.5999999999999 228.50000000000006 719.1999999999999 224.60000000000005 722.5999999999999 221.30000000000007 C 725.9999999999999 217.90000000000006 729.8 215.30000000000007 734.3 213.30000000000007 C 738.8 211.30000000000007 743.5 210.40000000000006 748.5 210.40000000000006 L 799.6 210.40000000000006 C 804.6 210.40000000000006 809.3000000000001 211.30000000000007 813.9 213.30000000000007 C 818.4 215.30000000000007 822.3 217.90000000000006 825.6 221.30000000000007 C 829 224.70000000000007 831.6 228.50000000000006 833.6 233.00000000000006 C 835.6 237.50000000000006 836.5 242.20000000000005 836.5 247.20000000000005 L 836.5 308 C 836.5 313 835.6 317.7 833.6 322.2 C 831.6 326.7 829 330.59999999999997 825.6 333.9 C 822.2 337.29999999999995 818.4 339.9 813.9 341.9 C 809.4 343.9 804.6999999999999 344.79999999999995 799.6 344.79999999999995 L 748.5 344.79999999999995 z M 728.8 307.9 C 728.8 310.5 729.3 313 730.4 315.4 C 731.5 317.79999999999995 732.9 319.9 734.6999999999999 321.7 C 736.4999999999999 323.5 738.5999999999999 325 740.9999999999999 326 C 743.3999999999999 327 745.8999999999999 327.6 748.4999999999999 327.6 L 799.5999999999999 327.6 C 802.1999999999999 327.6 804.8999999999999 327.1 807.1999999999999 326 C 809.6999999999999 324.9 811.8 323.5 813.4999999999999 321.7 C 815.1999999999999 319.9 816.6999999999999 317.8 817.6999999999999 315.4 C 818.6999999999999 312.99999999999994 819.3 310.5 819.3 307.9 L 819.3 247 C 819.3 244.4 818.8 241.7 817.6999999999999 239.4 C 816.5999999999999 236.9 815.1999999999999 234.8 813.4999999999999 233.1 C 811.7999999999998 231.4 809.6999999999999 229.9 807.1999999999999 228.9 C 804.6999999999999 227.8 802.1999999999999 227.3 799.5999999999999 227.3 L 748.4999999999999 227.3 C 745.8999999999999 227.3 743.3999999999999 227.8 740.9999999999999 228.9 C 738.5999999999999 230 736.4999999999999 231.4 734.6999999999999 233.1 C 732.9 234.79999999999998 731.4 236.9 730.4 239.4 C 729.3 241.9 728.8 244.4 728.8 247 L 728.8 307.9 z" stroke-linecap="round" />
</g>
<g transform="matrix(1 0 0 1 899.95 501.88)"  >
<path style="stroke: none; stroke-width: 1; stroke-dasharray: none; stroke-linecap: butt; stroke-dashoffset: 0; stroke-linejoin: miter; stroke-miterlimit: 4; fill: rgb(253,212,19); fill-rule: nonzero; opacity: 1;" vector-effect="non-scaling-stroke"  transform=" translate(-906.4, -277.4)" d="M 962.7 307.2 C 962.7 312.3 961.8000000000001 317.2 959.8000000000001 321.8 C 957.8000000000001 326.40000000000003 955.2 330.3 951.8000000000001 333.8 C 948.4000000000001 337.2 944.3000000000001 340 939.7 341.8 C 935.1 343.8 930.2 344.7 925 344.7 L 850.1 344.7 L 850.1 210.1 L 925 210.1 C 930.1 210.1 935.1 211 939.7 213 C 944.3000000000001 215 948.4000000000001 217.6 951.8000000000001 221 C 955.2 224.4 958.0000000000001 228.4 959.8000000000001 233 C 961.8000000000001 237.6 962.7 242.5 962.7 247.6 L 962.7 307.2 z M 867.5 327.3 L 925 327.3 C 930.8 327.3 935.5 325.3 939.5 321.40000000000003 C 943.4 317.50000000000006 945.4 312.70000000000005 945.4 307.20000000000005 L 945.4 247.70000000000005 C 945.4 244.90000000000003 944.9 242.30000000000004 943.8 239.80000000000004 C 942.6999999999999 237.30000000000004 941.3 235.20000000000005 939.5 233.40000000000003 C 937.7 231.60000000000002 935.6 230.00000000000003 933.1 229.10000000000002 C 930.6 228.00000000000003 928 227.50000000000003 925.1 227.50000000000003 L 867.7 227.50000000000003 L 867.7 327.3 z" stroke-linecap="round" />
</g>
<g transform="matrix(1 0 0 1 1015.05 502.18)"  >
<path style="stroke: none; stroke-width: 1; stroke-dasharray: none; stroke-linecap: butt; stroke-dashoffset: 0; stroke-linejoin: miter; stroke-miterlimit: 4; fill: rgb(253,212,19); fill-rule: nonzero; opacity: 1;" vector-effect="non-scaling-stroke"  transform=" translate(-1021.5, -277.7)" d="M 1066.9 344.8 L 976.0000000000001 344.8 L 976.0000000000001 286.1 L 976.0000000000001 268.8 L 976.0000000000001 248.70000000000002 C 976.0000000000001 243.4 977.1000000000001 238.50000000000003 979.0000000000001 233.70000000000002 C 981.0000000000001 229.00000000000003 983.7000000000002 225.00000000000003 987.1000000000001 221.50000000000003 C 990.5000000000001 218.10000000000002 994.6000000000001 215.30000000000004 999.3000000000002 213.40000000000003 C 1004.0000000000002 211.40000000000003 1009.0000000000002 210.40000000000003 1014.3000000000002 210.40000000000003 L 1066.9 210.40000000000003 L 1066.9 227.60000000000002 L 1014.3000000000001 227.60000000000002 C 1011.4000000000001 227.60000000000002 1008.6 228.10000000000002 1006.2 229.3 C 1003.7 230.4 1001.5 231.9 999.6 233.8 C 997.8000000000001 235.60000000000002 996.2 237.9 995.1 240.5 C 993.9 243.1 993.4 245.9 993.4 248.8 L 993.4 268.90000000000003 L 1054.4 268.90000000000003 L 1054.4 286.20000000000005 L 993.4000000000001 286.20000000000005 L 993.4000000000001 327.50000000000006 L 1067 327.50000000000006 L 1067 345.00000000000006 L 1066.9 345.00000000000006 z" stroke-linecap="round" />
</g>
<g transform="matrix(1 0 0 1 52.3 502.08)"  >
<path style="stroke: none; stroke-width: 1; stroke-dasharray: none; stroke-linecap: butt; stroke-dashoffset: 0; stroke-linejoin: miter; stroke-miterlimit: 4; fill: rgb(253,212,19); fill-rule: nonzero; opacity: 1;" vector-effect="non-scaling-stroke"  transform=" translate(-58.75, -277.6)" d="M 77.7 321.7 L 77.7 294.09999999999997 C 77.7 290.59999999999997 76.8 288.4 75.10000000000001 287.49999999999994 C 73.40000000000002 286.5999999999999 70.2 286.19999999999993 65.60000000000001 286.19999999999993 L 65.60000000000001 266.0999999999999 C 70.2 266.0999999999999 73.4 265.69999999999993 75.10000000000001 264.7999999999999 C 76.80000000000001 263.8999999999999 77.7 261.5999999999999 77.7 258.1999999999999 L 77.7 233.19999999999987 C 77.7 223.4999999999999 79.7 216.9999999999999 83.60000000000001 213.79999999999987 C 85.60000000000001 212.19999999999987 88.2 210.99999999999986 91.60000000000001 210.29999999999987 L 25.9 210.29999999999987 L 25.9 344.89999999999986 L 91.5 344.89999999999986 C 88.1 344.09999999999985 85.5 342.89999999999986 83.5 341.39999999999986 C 79.6 338 77.7 331.4 77.7 321.7 z" stroke-linecap="round" />
</g>
<g transform="matrix(1 0 0 1 118.75 501.78)"  >
<path style="stroke: none; stroke-width: 1; stroke-dasharray: none; stroke-linecap: butt; stroke-dashoffset: 0; stroke-linejoin: miter; stroke-miterlimit: 4; fill: rgb(253,212,19); fill-rule: nonzero; opacity: 1;" vector-effect="non-scaling-stroke"  transform=" translate(-125.2, -277.3)" d="M 160.5 210.1 L 120.8 210.1 L 120.8 227.7 L 102.4 227.7 C 101.10000000000001 227.7 100 227.79999999999998 99.5 228.2 C 99 228.6 98.6 229.39999999999998 98.6 230.79999999999998 L 98.6 258.09999999999997 C 98.6 267.2 95.69999999999999 273.2 89.89999999999999 276.4 C 95.69999999999999 279.29999999999995 98.6 285.29999999999995 98.6 294.5 L 98.6 323.8 C 98.6 325.1 98.89999999999999 326 99.5 326.40000000000003 C 100 326.8 101.1 326.90000000000003 102.4 326.90000000000003 L 120.80000000000001 326.90000000000003 L 120.80000000000001 344.50000000000006 L 160.5 344.50000000000006 L 160.5 210.1 z" stroke-linecap="round" />
</g>
<g transform="matrix(NaN NaN NaN NaN 0 0)"  >
<g style=""   >
</g>
</g>
<g transform="matrix(NaN NaN NaN NaN 0 0)"  >
<g style=""   >
</g>
</g>
<g transform="matrix(NaN NaN NaN NaN 0 0)"  >
<g style=""   >
</g>
</g>
<g transform="matrix(NaN NaN NaN NaN 0 0)"  >
<g style=""   >
</g>
</g>
<g transform="matrix(NaN NaN NaN NaN 0 0)"  >
<g style=""   >
</g>
</g>
<g transform="matrix(NaN NaN NaN NaN 0 0)"  >
<g style=""   >
</g>
</g>
<g transform="matrix(NaN NaN NaN NaN 0 0)"  >
<g style=""   >
</g>
</g>
<g transform="matrix(NaN NaN NaN NaN 0 0)"  >
<g style=""   >
</g>
</g>
</svg>