<?xml version="1.0" encoding="UTF-8" standalone="no" ?>
<!DOCTYPE svg PUBLIC "-//W3C//DTD SVG 1.1//EN" "http://www.w3.org/Graphics/SVG/1.1/DTD/svg11.dtd">
<svg xmlns="http://www.w3.org/2000/svg" xmlns:xlink="http://www.w3.org/1999/xlink" version="1.1" width="2080" height="1080" viewBox="0 0 1080 1080" xml:space="preserve">
<desc>Created with Fabric.js 5.2.4</desc>
<defs>
</defs>
<g transform="matrix(1 0 0 1 540 540)" id="d139f80f-0461-4be0-99d7-11148e9e14f4"  >
<rect style="stroke: none; stroke-width: 1; stroke-dasharray: none; stroke-linecap: butt; stroke-dashoffset: 0; stroke-linejoin: miter; stroke-miterlimit: 4; fill: rgb(255,255,255); fill-rule: nonzero; opacity: 1; visibility: hidden;" vector-effect="non-scaling-stroke"  x="-540" y="-540" rx="0" ry="0" width="1080" height="1080" />
</g>
<g transform="matrix(1 0 0 1 540 540)" id="db440984-a93e-4600-bb10-69fff361ce49"  >
</g>
<g transform="matrix(1.33 0 0 1.33 543.07 557.09)"  >
<g style="" vector-effect="non-scaling-stroke"   >
		<g transform="matrix(1 0 0 1 -221.5 0)"  >
<path style="stroke: none; stroke-width: 1; stroke-dasharray: none; stroke-linecap: butt; stroke-dashoffset: 0; stroke-linejoin: miter; stroke-miterlimit: 4; fill: rgb(8,69,121); fill-rule: nonzero; opacity: 1;" vector-effect="non-scaling-stroke"  transform=" translate(-200.55, -261.35)" d="M 241 294.8 C 239.5 298.40000000000003 237.4 301.40000000000003 234.8 304.1 C 232.20000000000002 306.70000000000005 229.10000000000002 308.8 225.5 310.3 C 221.9 311.8 218.1 312.6 214.1 312.6 L 157.89999999999998 312.6 L 157.89999999999998 284 L 171.09999999999997 284 L 171.09999999999997 299.3 L 213.99999999999997 299.3 C 218.49999999999997 299.3 222.19999999999996 297.8 225.29999999999998 294.7 C 228.39999999999998 291.59999999999997 229.89999999999998 287.8 229.89999999999998 283.4 L 229.89999999999998 267.9 L 157.79999999999998 267.9 L 157.79999999999998 239.29999999999998 C 157.79999999999998 235.29999999999998 158.6 231.49999999999997 160.1 227.89999999999998 C 161.6 224.29999999999998 163.7 221.29999999999998 166.29999999999998 218.59999999999997 C 168.89999999999998 215.99999999999997 171.99999999999997 213.89999999999998 175.6 212.39999999999998 C 179.2 210.89999999999998 183 210.09999999999997 187 210.09999999999997 L 243.2 210.09999999999997 L 243.2 233.19999999999996 L 230 233.19999999999996 L 230 223.19999999999996 L 187.1 223.19999999999996 C 184.9 223.19999999999996 182.79999999999998 223.59999999999997 180.9 224.49999999999997 C 179 225.29999999999998 177.3 226.49999999999997 175.9 227.89999999999998 C 174.5 229.29999999999998 173.3 230.99999999999997 172.5 232.99999999999997 C 171.6 234.99999999999997 171.2 237.09999999999997 171.2 239.29999999999998 L 171.2 254.6 L 243.29999999999998 254.6 L 243.29999999999998 283.3 C 243.3 287.4 242.5 291.2 241 294.8 z" stroke-linecap="round" />
</g>
		<g transform="matrix(1 0 0 1 -121.2 0.1)"  >
<path style="stroke: none; stroke-width: 1; stroke-dasharray: none; stroke-linecap: butt; stroke-dashoffset: 0; stroke-linejoin: miter; stroke-miterlimit: 4; fill: rgb(8,69,121); fill-rule: nonzero; opacity: 1;" vector-effect="non-scaling-stroke"  transform=" translate(-300.85, -261.45)" d="M 281.4 312.6 C 277.59999999999997 312.6 274 311.90000000000003 270.59999999999997 310.40000000000003 C 267.2 308.90000000000003 264.2 306.90000000000003 261.7 304.3 C 259.09999999999997 301.7 257.09999999999997 298.8 255.6 295.40000000000003 C 254.1 292.00000000000006 253.4 288.40000000000003 253.4 284.6 L 253.4 238.3 C 253.4 234.5 254.1 230.9 255.6 227.5 C 257.1 224.1 259.1 221.1 261.7 218.6 C 264.3 216 267.2 214 270.59999999999997 212.5 C 273.99999999999994 211 277.59999999999997 210.3 281.4 210.3 L 320.29999999999995 210.3 C 324.09999999999997 210.3 327.69999999999993 211 331.09999999999997 212.5 C 334.49999999999994 214 337.49999999999994 216 339.99999999999994 218.6 C 342.59999999999997 221.2 344.59999999999997 224.1 346.09999999999997 227.5 C 347.59999999999997 230.9 348.29999999999995 234.5 348.29999999999995 238.3 L 348.29999999999995 284.6 C 348.29999999999995 288.40000000000003 347.59999999999997 292 346.09999999999997 295.40000000000003 C 344.59999999999997 298.8 342.59999999999997 301.8 339.99999999999994 304.3 C 337.3999999999999 306.90000000000003 334.49999999999994 308.90000000000003 331.09999999999997 310.40000000000003 C 327.7 311.90000000000003 324.09999999999997 312.6 320.29999999999995 312.6 L 281.4 312.6 z M 266.4 284.5 C 266.4 286.5 266.79999999999995 288.4 267.59999999999997 290.2 C 268.4 292 269.49999999999994 293.59999999999997 270.9 295 C 272.29999999999995 296.4 273.9 297.5 275.7 298.3 C 277.5 299.1 279.4 299.5 281.4 299.5 L 320.29999999999995 299.5 C 322.29999999999995 299.5 324.29999999999995 299.1 326.09999999999997 298.3 C 327.99999999999994 297.5 329.59999999999997 296.40000000000003 330.9 295 C 332.2 293.6 333.29999999999995 292 334.09999999999997 290.2 C 334.9 288.4 335.29999999999995 286.5 335.29999999999995 284.5 L 335.29999999999995 238.2 C 335.29999999999995 236.2 334.9 234.2 334.09999999999997 232.39999999999998 C 333.29999999999995 230.49999999999997 332.2 228.89999999999998 330.9 227.59999999999997 C 329.59999999999997 226.29999999999995 328 225.19999999999996 326.09999999999997 224.39999999999998 C 324.2 223.59999999999997 322.29999999999995 223.2 320.29999999999995 223.2 L 281.4 223.2 C 279.4 223.2 277.5 223.6 275.7 224.39999999999998 C 273.9 225.2 272.3 226.29999999999998 270.9 227.59999999999997 C 269.5 228.89999999999998 268.4 230.49999999999997 267.59999999999997 232.39999999999998 C 266.79999999999995 234.29999999999998 266.4 236.2 266.4 238.2 L 266.4 284.5 z" stroke-linecap="round" />
</g>
		<g transform="matrix(1 0 0 1 -28.45 -0.05)"  >
<path style="stroke: none; stroke-width: 1; stroke-dasharray: none; stroke-linecap: butt; stroke-dashoffset: 0; stroke-linejoin: miter; stroke-miterlimit: 4; fill: rgb(8,69,121); fill-rule: nonzero; opacity: 1;" vector-effect="non-scaling-stroke"  transform=" translate(-393.6, -261.3)" d="M 376.1 310.3 C 372.6 308.8 369.6 306.8 367.1 304.2 C 364.5 301.59999999999997 362.5 298.59999999999997 361 295.2 C 359.5 291.8 358.8 288 358.8 284.09999999999997 L 358.8 210.09999999999997 L 372 210.09999999999997 L 372 284.09999999999997 C 372 286.2 372.4 288.2 373.2 289.99999999999994 C 374 291.79999999999995 375.09999999999997 293.3999999999999 376.5 294.79999999999995 C 377.9 296.19999999999993 379.5 297.29999999999995 381.3 298.09999999999997 C 383.1 298.9 385.1 299.29999999999995 387.2 299.29999999999995 L 428.4 299.29999999999995 L 428.4 312.49999999999994 L 387.2 312.49999999999994 C 383.2 312.6 379.6 311.8 376.1 310.3 z" stroke-linecap="round" />
</g>
		<g transform="matrix(1 0 0 1 22.95 0)"  >
<path style="stroke: none; stroke-width: 1; stroke-dasharray: none; stroke-linecap: butt; stroke-dashoffset: 0; stroke-linejoin: miter; stroke-miterlimit: 4; fill: rgb(8,69,121); fill-rule: nonzero; opacity: 1;" vector-effect="non-scaling-stroke"  transform=" translate(-445, -261.35)" d="M 451.6 312.6 L 438.40000000000003 312.6 L 438.40000000000003 210.1 L 451.6 210.1 L 451.6 312.6 z" stroke-linecap="round" />
</g>
		<g transform="matrix(1 0 0 1 77.75 -0.05)"  >
<path style="stroke: none; stroke-width: 1; stroke-dasharray: none; stroke-linecap: butt; stroke-dashoffset: 0; stroke-linejoin: miter; stroke-miterlimit: 4; fill: rgb(253,212,19); fill-rule: nonzero; opacity: 1;" vector-effect="non-scaling-stroke"  transform=" translate(-499.8, -261.3)" d="M 479.4 310.3 C 475.9 308.8 472.79999999999995 306.8 470.2 304.2 C 467.59999999999997 301.59999999999997 465.5 298.5 464.09999999999997 295 C 462.59999999999997 291.5 461.9 287.8 461.9 283.8 L 461.9 238.60000000000002 C 461.9 234.70000000000002 462.59999999999997 231.00000000000003 464.09999999999997 227.50000000000003 C 465.59999999999997 224.00000000000003 467.59999999999997 221.00000000000003 470.2 218.40000000000003 C 472.8 215.80000000000004 475.9 213.70000000000005 479.4 212.30000000000004 C 482.9 210.80000000000004 486.59999999999997 210.10000000000005 490.59999999999997 210.10000000000005 L 537.6999999999999 210.10000000000005 L 537.6999999999999 223.20000000000005 L 490.5999999999999 223.20000000000005 C 488.4999999999999 223.20000000000005 486.4999999999999 223.60000000000005 484.4999999999999 224.40000000000003 C 482.5999999999999 225.20000000000005 480.89999999999986 226.30000000000004 479.5999999999999 227.70000000000005 C 478.19999999999993 229.10000000000005 477.0999999999999 230.80000000000004 476.2999999999999 232.60000000000005 C 475.4999999999999 234.50000000000006 475.0999999999999 236.50000000000006 475.0999999999999 238.60000000000005 L 475.0999999999999 283.80000000000007 C 475.0999999999999 288.20000000000005 476.5999999999999 291.80000000000007 479.5999999999999 294.80000000000007 C 482.5999999999999 297.80000000000007 486.19999999999993 299.30000000000007 490.5999999999999 299.30000000000007 L 537.6999999999999 299.30000000000007 L 537.6999999999999 312.50000000000006 L 490.5999999999999 312.50000000000006 C 486.6 312.6 482.9 311.8 479.4 310.3 z" stroke-linecap="round" />
</g>
		<g transform="matrix(1 0 0 1 173.25 0.1)"  >
<path style="stroke: none; stroke-width: 1; stroke-dasharray: none; stroke-linecap: butt; stroke-dashoffset: 0; stroke-linejoin: miter; stroke-miterlimit: 4; fill: rgb(253,212,19); fill-rule: nonzero; opacity: 1;" vector-effect="non-scaling-stroke"  transform=" translate(-595.3, -261.45)" d="M 575.8 312.6 C 572 312.6 568.4 311.90000000000003 565 310.40000000000003 C 561.6 308.90000000000003 558.6 306.90000000000003 556.1 304.3 C 553.5 301.7 551.5 298.8 550 295.40000000000003 C 548.5 292.00000000000006 547.8 288.40000000000003 547.8 284.6 L 547.8 238.3 C 547.8 234.5 548.5 230.9 550 227.5 C 551.5 224.1 553.5 221.1 556.1 218.6 C 558.7 216 561.6 214 565 212.5 C 568.4 211 572 210.3 575.8 210.3 L 614.6999999999999 210.3 C 618.4999999999999 210.3 622.0999999999999 211 625.5999999999999 212.5 C 628.9999999999999 214 631.9999999999999 216 634.4999999999999 218.6 C 637.0999999999999 221.2 639.0999999999999 224.1 640.5999999999999 227.5 C 642.0999999999999 230.9 642.8 234.5 642.8 238.3 L 642.8 284.6 C 642.8 288.40000000000003 642.0999999999999 292 640.5999999999999 295.40000000000003 C 639.0999999999999 298.8 637.0999999999999 301.8 634.4999999999999 304.3 C 631.8999999999999 306.90000000000003 628.9999999999999 308.90000000000003 625.5999999999999 310.40000000000003 C 622.1999999999999 311.90000000000003 618.5999999999999 312.6 614.6999999999999 312.6 L 575.8 312.6 z M 560.8 284.5 C 560.8 286.5 561.1999999999999 288.4 562 290.2 C 562.8 292 563.9 293.59999999999997 565.3 295 C 566.6999999999999 296.4 568.3 297.5 570.0999999999999 298.3 C 571.8999999999999 299.1 573.8 299.5 575.8 299.5 L 614.6999999999999 299.5 C 616.6999999999999 299.5 618.6999999999999 299.1 620.4999999999999 298.3 C 622.3999999999999 297.5 623.9999999999999 296.40000000000003 625.2999999999998 295 C 626.5999999999998 293.6 627.6999999999998 292 628.4999999999999 290.2 C 629.2999999999998 288.4 629.6999999999999 286.5 629.6999999999999 284.5 L 629.6999999999999 238.2 C 629.6999999999999 236.2 629.3 234.2 628.4999999999999 232.39999999999998 C 627.6999999999999 230.49999999999997 626.5999999999999 228.89999999999998 625.2999999999998 227.59999999999997 C 623.9999999999999 226.29999999999995 622.3999999999999 225.19999999999996 620.4999999999999 224.39999999999998 C 618.5999999999999 223.59999999999997 616.6999999999999 223.2 614.6999999999999 223.2 L 575.8 223.2 C 573.8 223.2 571.9 223.6 570.0999999999999 224.39999999999998 C 568.3 225.2 566.6999999999999 226.29999999999998 565.3 227.59999999999997 C 563.9 228.89999999999998 562.8 230.49999999999997 562 232.39999999999998 C 561.2 234.29999999999998 560.8 236.2 560.8 238.2 L 560.8 284.5 z" stroke-linecap="round" />
</g>
		<g transform="matrix(1 0 0 1 273.9 -0.05)"  >
<path style="stroke: none; stroke-width: 1; stroke-dasharray: none; stroke-linecap: butt; stroke-dashoffset: 0; stroke-linejoin: miter; stroke-miterlimit: 4; fill: rgb(253,212,19); fill-rule: nonzero; opacity: 1;" vector-effect="non-scaling-stroke"  transform=" translate(-695.95, -261.3)" d="M 738.8 284 C 738.8 287.9 738.0999999999999 291.6 736.5999999999999 295.1 C 735.0999999999999 298.6 733.0999999999999 301.6 730.4999999999999 304.20000000000005 C 727.8999999999999 306.80000000000007 724.7999999999998 308.90000000000003 721.2999999999998 310.30000000000007 C 717.7999999999998 311.80000000000007 714.0999999999998 312.50000000000006 710.0999999999998 312.50000000000006 L 653.0999999999998 312.50000000000006 L 653.0999999999998 210.1 L 710.0999999999998 210.1 C 713.9999999999998 210.1 717.7999999999998 210.79999999999998 721.2999999999998 212.29999999999998 C 724.7999999999998 213.79999999999998 727.8999999999999 215.79999999999998 730.4999999999999 218.39999999999998 C 733.0999999999999 220.99999999999997 735.1999999999999 223.99999999999997 736.5999999999999 227.49999999999997 C 738.0999999999999 230.99999999999997 738.8 234.69999999999996 738.8 238.59999999999997 L 738.8 284 z M 666.4 299.3 L 710.1 299.3 C 714.5 299.3 718.1 297.8 721.1 294.8 C 724.1 291.8 725.6 288.2 725.6 284 L 725.6 238.7 C 725.6 236.6 725.2 234.6 724.4 232.7 C 723.6 230.79999999999998 722.5 229.2 721.1 227.79999999999998 C 719.7 226.39999999999998 718.1 225.2 716.2 224.49999999999997 C 714.3000000000001 223.69999999999996 712.3000000000001 223.29999999999998 710.1 223.29999999999998 L 666.4 223.29999999999998 L 666.4 299.3 z" stroke-linecap="round" />
</g>
		<g transform="matrix(1 0 0 1 361.5 0.05)"  >
<path style="stroke: none; stroke-width: 1; stroke-dasharray: none; stroke-linecap: butt; stroke-dashoffset: 0; stroke-linejoin: miter; stroke-miterlimit: 4; fill: rgb(253,212,19); fill-rule: nonzero; opacity: 1;" vector-effect="non-scaling-stroke"  transform=" translate(-783.55, -261.4)" d="M 818.1 312.6 L 748.9 312.6 L 748.9 267.90000000000003 L 748.9 254.70000000000005 L 748.9 239.40000000000003 C 748.9 235.40000000000003 749.6999999999999 231.60000000000002 751.1999999999999 228.00000000000003 C 752.6999999999999 224.40000000000003 754.8 221.40000000000003 757.4 218.70000000000002 C 760 216.10000000000002 763.1 214.00000000000003 766.6999999999999 212.50000000000003 C 770.3 211.00000000000003 774.0999999999999 210.20000000000002 778.0999999999999 210.20000000000002 L 818.0999999999999 210.20000000000002 L 818.0999999999999 223.3 L 778.0999999999999 223.3 C 775.8999999999999 223.3 773.8 223.70000000000002 771.8999999999999 224.60000000000002 C 769.9999999999999 225.40000000000003 768.2999999999998 226.60000000000002 766.8999999999999 228.00000000000003 C 765.4999999999999 229.40000000000003 764.2999999999998 231.10000000000002 763.4999999999999 233.10000000000002 C 762.5999999999999 235.10000000000002 762.1999999999999 237.20000000000002 762.1999999999999 239.40000000000003 L 762.1999999999999 254.70000000000005 L 808.5999999999999 254.70000000000005 L 808.5999999999999 267.90000000000003 L 762.1999999999999 267.90000000000003 L 762.1999999999999 299.3 L 818.1999999999999 299.3 L 818.1999999999999 312.6 z" stroke-linecap="round" />
</g>
		<g transform="matrix(1 0 0 1 -371.15 0.05)"  >
<path style="stroke: none; stroke-width: 1; stroke-dasharray: none; stroke-linecap: butt; stroke-dashoffset: 0; stroke-linejoin: miter; stroke-miterlimit: 4; fill: rgb(253,212,19); fill-rule: nonzero; opacity: 1;" vector-effect="non-scaling-stroke"  transform=" translate(-50.9, -261.4)" d="M 65.3 295 L 65.3 274 C 65.3 271.3 64.6 269.7 63.3 269 C 62 268.3 59.599999999999994 268 56.099999999999994 268 L 56.099999999999994 252.7 C 59.599999999999994 252.7 61.99999999999999 252.39999999999998 63.3 251.7 C 64.6 251 65.3 249.29999999999998 65.3 246.7 L 65.3 227.7 C 65.3 220.29999999999998 66.8 215.39999999999998 69.8 212.89999999999998 C 71.3 211.7 73.3 210.79999999999998 75.89999999999999 210.2 L 25.9 210.2 L 25.9 312.6 L 75.8 312.6 C 73.2 312 71.2 311.1 69.7 309.90000000000003 C 66.8 307.4 65.3 302.4 65.3 295 z" stroke-linecap="round" />
</g>
		<g transform="matrix(1 0 0 1 -320.6 -0.05)"  >
<path style="stroke: none; stroke-width: 1; stroke-dasharray: none; stroke-linecap: butt; stroke-dashoffset: 0; stroke-linejoin: miter; stroke-miterlimit: 4; fill: rgb(253,212,19); fill-rule: nonzero; opacity: 1;" vector-effect="non-scaling-stroke"  transform=" translate(-101.45, -261.3)" d="M 128.3 210.1 L 98.1 210.1 L 98.1 223.5 L 84.1 223.5 C 83.1 223.5 82.3 223.6 81.89999999999999 223.9 C 81.49999999999999 224.20000000000002 81.19999999999999 224.8 81.19999999999999 225.9 L 81.19999999999999 246.70000000000002 C 81.19999999999999 253.60000000000002 78.99999999999999 258.20000000000005 74.6 260.6 C 79 262.8 81.19999999999999 267.40000000000003 81.19999999999999 274.40000000000003 L 81.19999999999999 296.70000000000005 C 81.19999999999999 297.70000000000005 81.39999999999999 298.40000000000003 81.89999999999999 298.70000000000005 C 82.3 299.00000000000006 83.1 299.1 84.1 299.1 L 98.1 299.1 L 98.1 312.5 L 128.29999999999998 312.5 L 128.29999999999998 210.1 z" stroke-linecap="round" />
</g>
</g>
</g>
</svg>